<mxfile host="Electron" agent="Mozilla/5.0 (Windows NT 10.0; Win64; x64) AppleWebKit/537.36 (KHTML, like Gecko) draw.io/24.7.17 Chrome/128.0.6613.36 Electron/32.0.1 Safari/537.36" version="24.7.17">
  <diagram id="C5RBs43oDa-KdzZeNtuy" name="Page-1">
    <mxGraphModel dx="989" dy="610" grid="1" gridSize="10" guides="1" tooltips="1" connect="1" arrows="1" fold="1" page="1" pageScale="1" pageWidth="827" pageHeight="1169" math="0" shadow="0">
      <root>
        <mxCell id="WIyWlLk6GJQsqaUBKTNV-0" />
        <mxCell id="WIyWlLk6GJQsqaUBKTNV-1" parent="WIyWlLk6GJQsqaUBKTNV-0" />
        <mxCell id="zkfFHV4jXpPFQw0GAbJ--0" value="User" style="swimlane;fontStyle=0;align=center;verticalAlign=top;childLayout=stackLayout;horizontal=1;startSize=26;horizontalStack=0;resizeParent=1;resizeLast=0;collapsible=1;marginBottom=0;rounded=1;shadow=0;strokeWidth=1;" parent="WIyWlLk6GJQsqaUBKTNV-1" vertex="1">
          <mxGeometry x="60" y="40" width="280" height="490" as="geometry">
            <mxRectangle x="230" y="140" width="160" height="26" as="alternateBounds" />
          </mxGeometry>
        </mxCell>
        <mxCell id="zkfFHV4jXpPFQw0GAbJ--1" value="- userID: String&#xa;- displayName: String&#xa;- username: String&#xa;- email: String&#xa;- password: String&#xa;- role: String&#xa;- country: String&#xa;- profilePicture: String&#xa;- bio: String&#xa;- followers: List &lt;User&gt;&#xa;- following: List &lt;User&gt;&#xa;- clothes: List &lt;Clothe&gt;&#xa;- closets: List &lt;Closet&gt;&#xa;- outfits: List &lt;Outfit&gt;" style="text;align=left;verticalAlign=top;spacingLeft=4;spacingRight=4;overflow=hidden;rotatable=0;points=[[0,0.5],[1,0.5]];portConstraint=eastwest;spacingBottom=0;spacingTop=0;spacing=2;whiteSpace=wrap;textShadow=0;labelBorderColor=none;labelBackgroundColor=none;" parent="zkfFHV4jXpPFQw0GAbJ--0" vertex="1">
          <mxGeometry y="26" width="280" height="214" as="geometry" />
        </mxCell>
        <mxCell id="zkfFHV4jXpPFQw0GAbJ--4" value="" style="line;html=1;strokeWidth=1;align=left;verticalAlign=middle;spacingTop=-1;spacingLeft=3;spacingRight=3;rotatable=0;labelPosition=right;points=[];portConstraint=eastwest;" parent="zkfFHV4jXpPFQw0GAbJ--0" vertex="1">
          <mxGeometry y="240" width="280" height="8" as="geometry" />
        </mxCell>
        <mxCell id="zkfFHV4jXpPFQw0GAbJ--5" value="+ login(username|email, password)&#xa;+ register(username, email, pass, passConfirm)&#xa;+ updateAccount(token, data)&#xa;+ followUser(token, targetUserID)&#xa;+ unfollowUser(token, targetUserID)&#xa;+ createClothe(token, data)&#xa;+ addClothes(token, clothesIDs)&#xa;+ deleteClothes(token, clothesIDs)&#xa;+ createOutfit(token, clothesIDs)&#xa;+ addOutfit(token, outfitID)&#xa;+ deleteOutfits(token, outfitsIDs)&#xa;+ createCloset(token, name)&#xa;+ addToCloset(token, clothesIDs, closetID)&#xa;+ deleteCloset(token, closetID)&#xa;+ addPost(token, caption, content&lt;opt&gt;, isPublic)&#xa;+ deletePost(token, postID)" style="text;align=left;verticalAlign=top;spacingLeft=4;spacingRight=4;overflow=hidden;rotatable=0;points=[[0,0.5],[1,0.5]];portConstraint=eastwest;" parent="zkfFHV4jXpPFQw0GAbJ--0" vertex="1">
          <mxGeometry y="248" width="280" height="242" as="geometry" />
        </mxCell>
        <mxCell id="mu_r0meLQrhX1xihYz7L-8" style="edgeStyle=orthogonalEdgeStyle;rounded=1;orthogonalLoop=1;jettySize=auto;html=1;exitX=0.5;exitY=0;exitDx=0;exitDy=0;entryX=0.5;entryY=1;entryDx=0;entryDy=0;endArrow=block;endFill=0;endSize=10;curved=0;" parent="WIyWlLk6GJQsqaUBKTNV-1" source="zkfFHV4jXpPFQw0GAbJ--6" target="zkfFHV4jXpPFQw0GAbJ--0" edge="1">
          <mxGeometry relative="1" as="geometry" />
        </mxCell>
        <mxCell id="zkfFHV4jXpPFQw0GAbJ--6" value="Admin" style="swimlane;fontStyle=0;align=center;verticalAlign=top;childLayout=stackLayout;horizontal=1;startSize=26;horizontalStack=0;resizeParent=1;resizeLast=0;collapsible=1;marginBottom=0;rounded=1;shadow=0;strokeWidth=1;" parent="WIyWlLk6GJQsqaUBKTNV-1" vertex="1">
          <mxGeometry x="70" y="599" width="260" height="90" as="geometry">
            <mxRectangle x="120" y="360" width="160" height="26" as="alternateBounds" />
          </mxGeometry>
        </mxCell>
        <mxCell id="zkfFHV4jXpPFQw0GAbJ--9" value="" style="line;html=1;strokeWidth=1;align=left;verticalAlign=middle;spacingTop=-1;spacingLeft=3;spacingRight=3;rotatable=0;labelPosition=right;points=[];portConstraint=eastwest;" parent="zkfFHV4jXpPFQw0GAbJ--6" vertex="1">
          <mxGeometry y="26" width="260" height="8" as="geometry" />
        </mxCell>
        <mxCell id="zkfFHV4jXpPFQw0GAbJ--10" value="- suspendAccounts(token, usersIDs)&#xa;- monitorReport(token, reportID, isResolved)&#xa;- managePost(token, postID, data)" style="text;align=left;verticalAlign=top;spacingLeft=4;spacingRight=4;overflow=hidden;rotatable=0;points=[[0,0.5],[1,0.5]];portConstraint=eastwest;fontStyle=0" parent="zkfFHV4jXpPFQw0GAbJ--6" vertex="1">
          <mxGeometry y="34" width="260" height="56" as="geometry" />
        </mxCell>
        <mxCell id="UQN04yhtk1I_ApgpXb6l-16" style="edgeStyle=orthogonalEdgeStyle;rounded=1;orthogonalLoop=1;jettySize=auto;html=1;exitX=0.75;exitY=1;exitDx=0;exitDy=0;entryX=0.75;entryY=0;entryDx=0;entryDy=0;endArrow=diamondThin;endFill=0;endSize=10;curved=0;" edge="1" parent="WIyWlLk6GJQsqaUBKTNV-1" source="zkfFHV4jXpPFQw0GAbJ--13" target="mu_r0meLQrhX1xihYz7L-1">
          <mxGeometry relative="1" as="geometry" />
        </mxCell>
        <mxCell id="UQN04yhtk1I_ApgpXb6l-19" style="edgeStyle=orthogonalEdgeStyle;rounded=1;orthogonalLoop=1;jettySize=auto;html=1;exitX=1;exitY=0.75;exitDx=0;exitDy=0;entryX=0.75;entryY=0;entryDx=0;entryDy=0;endArrow=none;endFill=0;endSize=10;curved=0;" edge="1" parent="WIyWlLk6GJQsqaUBKTNV-1" source="zkfFHV4jXpPFQw0GAbJ--13" target="zkfFHV4jXpPFQw0GAbJ--17">
          <mxGeometry relative="1" as="geometry">
            <Array as="points">
              <mxPoint x="760" y="190" />
              <mxPoint x="760" y="520" />
              <mxPoint x="703" y="520" />
            </Array>
          </mxGeometry>
        </mxCell>
        <mxCell id="UQN04yhtk1I_ApgpXb6l-32" value="includes" style="edgeLabel;html=1;align=center;verticalAlign=middle;resizable=0;points=[];labelBackgroundColor=none;" vertex="1" connectable="0" parent="UQN04yhtk1I_ApgpXb6l-19">
          <mxGeometry x="0.6663" relative="1" as="geometry">
            <mxPoint x="-13" y="7" as="offset" />
          </mxGeometry>
        </mxCell>
        <mxCell id="UQN04yhtk1I_ApgpXb6l-33" value="0..1" style="edgeLabel;html=1;align=center;verticalAlign=middle;resizable=0;points=[];" vertex="1" connectable="0" parent="UQN04yhtk1I_ApgpXb6l-19">
          <mxGeometry x="0.9356" relative="1" as="geometry">
            <mxPoint x="-11" y="7" as="offset" />
          </mxGeometry>
        </mxCell>
        <mxCell id="UQN04yhtk1I_ApgpXb6l-34" value="0..*" style="edgeLabel;html=1;align=center;verticalAlign=middle;resizable=0;points=[];labelBackgroundColor=none;" vertex="1" connectable="0" parent="UQN04yhtk1I_ApgpXb6l-19">
          <mxGeometry x="-0.9469" y="-1" relative="1" as="geometry">
            <mxPoint x="-1" y="6" as="offset" />
          </mxGeometry>
        </mxCell>
        <mxCell id="zkfFHV4jXpPFQw0GAbJ--13" value="Clothe" style="swimlane;fontStyle=0;align=center;verticalAlign=top;childLayout=stackLayout;horizontal=1;startSize=26;horizontalStack=0;resizeParent=1;resizeLast=0;collapsible=1;marginBottom=0;rounded=1;shadow=0;strokeWidth=1;" parent="WIyWlLk6GJQsqaUBKTNV-1" vertex="1">
          <mxGeometry x="570" y="70" width="160" height="160" as="geometry">
            <mxRectangle x="340" y="380" width="170" height="26" as="alternateBounds" />
          </mxGeometry>
        </mxCell>
        <mxCell id="zkfFHV4jXpPFQw0GAbJ--14" value="- clotheID: String&#xa;- name: String&#xa;- type: String&#xa;- color: String&#xa;- fabric: String&#xa;- brand: String&#xa;- image: String&#xa;- creatorID: String" style="text;align=left;verticalAlign=top;spacingLeft=4;spacingRight=4;overflow=hidden;rotatable=0;points=[[0,0.5],[1,0.5]];portConstraint=eastwest;" parent="zkfFHV4jXpPFQw0GAbJ--13" vertex="1">
          <mxGeometry y="26" width="160" height="124" as="geometry" />
        </mxCell>
        <mxCell id="zkfFHV4jXpPFQw0GAbJ--15" value="" style="line;html=1;strokeWidth=1;align=left;verticalAlign=middle;spacingTop=-1;spacingLeft=3;spacingRight=3;rotatable=0;labelPosition=right;points=[];portConstraint=eastwest;" parent="zkfFHV4jXpPFQw0GAbJ--13" vertex="1">
          <mxGeometry y="150" width="160" height="8" as="geometry" />
        </mxCell>
        <mxCell id="UQN04yhtk1I_ApgpXb6l-21" style="edgeStyle=orthogonalEdgeStyle;rounded=1;orthogonalLoop=1;jettySize=auto;html=1;exitX=0.25;exitY=1;exitDx=0;exitDy=0;entryX=0.5;entryY=0;entryDx=0;entryDy=0;endArrow=none;endFill=0;curved=0;" edge="1" parent="WIyWlLk6GJQsqaUBKTNV-1" source="zkfFHV4jXpPFQw0GAbJ--17" target="mu_r0meLQrhX1xihYz7L-4">
          <mxGeometry relative="1" as="geometry" />
        </mxCell>
        <mxCell id="UQN04yhtk1I_ApgpXb6l-22" value="1" style="edgeLabel;html=1;align=center;verticalAlign=middle;resizable=0;points=[];" vertex="1" connectable="0" parent="UQN04yhtk1I_ApgpXb6l-21">
          <mxGeometry x="-0.8245" relative="1" as="geometry">
            <mxPoint x="5" y="1" as="offset" />
          </mxGeometry>
        </mxCell>
        <mxCell id="UQN04yhtk1I_ApgpXb6l-23" value="0..*" style="edgeLabel;html=1;align=center;verticalAlign=middle;resizable=0;points=[];" vertex="1" connectable="0" parent="UQN04yhtk1I_ApgpXb6l-21">
          <mxGeometry x="0.7238" relative="1" as="geometry">
            <mxPoint x="-11" y="5" as="offset" />
          </mxGeometry>
        </mxCell>
        <mxCell id="UQN04yhtk1I_ApgpXb6l-35" value="has" style="edgeLabel;html=1;align=center;verticalAlign=middle;resizable=0;points=[];labelBackgroundColor=none;" vertex="1" connectable="0" parent="UQN04yhtk1I_ApgpXb6l-21">
          <mxGeometry x="0.0076" relative="1" as="geometry">
            <mxPoint x="5" y="-6" as="offset" />
          </mxGeometry>
        </mxCell>
        <mxCell id="zkfFHV4jXpPFQw0GAbJ--17" value="Post" style="swimlane;fontStyle=0;align=center;verticalAlign=top;childLayout=stackLayout;horizontal=1;startSize=26;horizontalStack=0;resizeParent=1;resizeLast=0;collapsible=1;marginBottom=0;rounded=1;shadow=0;strokeWidth=1;" parent="WIyWlLk6GJQsqaUBKTNV-1" vertex="1">
          <mxGeometry x="544" y="560" width="212" height="130" as="geometry">
            <mxRectangle x="550" y="140" width="160" height="26" as="alternateBounds" />
          </mxGeometry>
        </mxCell>
        <mxCell id="zkfFHV4jXpPFQw0GAbJ--18" value="- postID: String&#xa;- creatorID: String&#xa;- caption: String&#xa;- content: List &lt;Clothe&gt; | List &lt;Outfit&gt;&#xa;- likes: List &lt;User&gt;&#xa;- public: Boolean" style="text;align=left;verticalAlign=top;spacingLeft=4;spacingRight=4;overflow=hidden;rotatable=0;points=[[0,0.5],[1,0.5]];portConstraint=eastwest;" parent="zkfFHV4jXpPFQw0GAbJ--17" vertex="1">
          <mxGeometry y="26" width="212" height="94" as="geometry" />
        </mxCell>
        <mxCell id="zkfFHV4jXpPFQw0GAbJ--23" value="" style="line;html=1;strokeWidth=1;align=left;verticalAlign=middle;spacingTop=-1;spacingLeft=3;spacingRight=3;rotatable=0;labelPosition=right;points=[];portConstraint=eastwest;" parent="zkfFHV4jXpPFQw0GAbJ--17" vertex="1">
          <mxGeometry y="120" width="212" height="8" as="geometry" />
        </mxCell>
        <mxCell id="UQN04yhtk1I_ApgpXb6l-18" style="edgeStyle=orthogonalEdgeStyle;rounded=1;orthogonalLoop=1;jettySize=auto;html=1;exitX=0.5;exitY=1;exitDx=0;exitDy=0;entryX=0.25;entryY=0;entryDx=0;entryDy=0;endArrow=none;endFill=0;endSize=10;curved=0;" edge="1" parent="WIyWlLk6GJQsqaUBKTNV-1" source="mu_r0meLQrhX1xihYz7L-1" target="zkfFHV4jXpPFQw0GAbJ--17">
          <mxGeometry relative="1" as="geometry" />
        </mxCell>
        <mxCell id="UQN04yhtk1I_ApgpXb6l-28" value="0..*" style="edgeLabel;html=1;align=center;verticalAlign=middle;resizable=0;points=[];" vertex="1" connectable="0" parent="UQN04yhtk1I_ApgpXb6l-18">
          <mxGeometry x="-0.7536" y="-1" relative="1" as="geometry">
            <mxPoint x="11" y="-9" as="offset" />
          </mxGeometry>
        </mxCell>
        <mxCell id="UQN04yhtk1I_ApgpXb6l-29" value="0..1" style="edgeLabel;html=1;align=center;verticalAlign=middle;resizable=0;points=[];labelBackgroundColor=none;" vertex="1" connectable="0" parent="UQN04yhtk1I_ApgpXb6l-18">
          <mxGeometry x="0.675" relative="1" as="geometry">
            <mxPoint x="-12" y="14" as="offset" />
          </mxGeometry>
        </mxCell>
        <mxCell id="UQN04yhtk1I_ApgpXb6l-30" value="includes" style="edgeLabel;html=1;align=center;verticalAlign=middle;resizable=0;points=[];labelBackgroundColor=none;" vertex="1" connectable="0" parent="UQN04yhtk1I_ApgpXb6l-18">
          <mxGeometry x="0.0607" relative="1" as="geometry">
            <mxPoint x="1" y="7" as="offset" />
          </mxGeometry>
        </mxCell>
        <mxCell id="mu_r0meLQrhX1xihYz7L-1" value="Oufit" style="swimlane;fontStyle=0;align=center;verticalAlign=top;childLayout=stackLayout;horizontal=1;startSize=26;horizontalStack=0;resizeParent=1;resizeLast=0;collapsible=1;marginBottom=0;rounded=1;shadow=0;strokeWidth=1;" parent="WIyWlLk6GJQsqaUBKTNV-1" vertex="1">
          <mxGeometry x="570" y="390" width="160" height="90" as="geometry">
            <mxRectangle x="340" y="380" width="170" height="26" as="alternateBounds" />
          </mxGeometry>
        </mxCell>
        <mxCell id="mu_r0meLQrhX1xihYz7L-2" value="- oufitID: String&#xa;- items: List &lt;Clothe&gt;&#xa;- creatorID: String" style="text;align=left;verticalAlign=top;spacingLeft=4;spacingRight=4;overflow=hidden;rotatable=0;points=[[0,0.5],[1,0.5]];portConstraint=eastwest;" parent="mu_r0meLQrhX1xihYz7L-1" vertex="1">
          <mxGeometry y="26" width="160" height="54" as="geometry" />
        </mxCell>
        <mxCell id="mu_r0meLQrhX1xihYz7L-3" value="" style="line;html=1;strokeWidth=1;align=left;verticalAlign=middle;spacingTop=-1;spacingLeft=3;spacingRight=3;rotatable=0;labelPosition=right;points=[];portConstraint=eastwest;" parent="mu_r0meLQrhX1xihYz7L-1" vertex="1">
          <mxGeometry y="80" width="160" height="8" as="geometry" />
        </mxCell>
        <mxCell id="mu_r0meLQrhX1xihYz7L-4" value="Report" style="swimlane;fontStyle=0;align=center;verticalAlign=top;childLayout=stackLayout;horizontal=1;startSize=26;horizontalStack=0;resizeParent=1;resizeLast=0;collapsible=1;marginBottom=0;rounded=1;shadow=0;strokeWidth=1;" parent="WIyWlLk6GJQsqaUBKTNV-1" vertex="1">
          <mxGeometry x="477" y="740" width="160" height="120" as="geometry">
            <mxRectangle x="340" y="380" width="170" height="26" as="alternateBounds" />
          </mxGeometry>
        </mxCell>
        <mxCell id="mu_r0meLQrhX1xihYz7L-5" value="- reportID: String&#xa;- reportedByID: String&#xa;- targetPostID: String&#xa;- reason: String&#xa;- resolvedStatus: Boolean" style="text;align=left;verticalAlign=top;spacingLeft=4;spacingRight=4;overflow=hidden;rotatable=0;points=[[0,0.5],[1,0.5]];portConstraint=eastwest;" parent="mu_r0meLQrhX1xihYz7L-4" vertex="1">
          <mxGeometry y="26" width="160" height="84" as="geometry" />
        </mxCell>
        <mxCell id="mu_r0meLQrhX1xihYz7L-6" value="" style="line;html=1;strokeWidth=1;align=left;verticalAlign=middle;spacingTop=-1;spacingLeft=3;spacingRight=3;rotatable=0;labelPosition=right;points=[];portConstraint=eastwest;" parent="mu_r0meLQrhX1xihYz7L-4" vertex="1">
          <mxGeometry y="110" width="160" height="8" as="geometry" />
        </mxCell>
        <mxCell id="mu_r0meLQrhX1xihYz7L-9" style="edgeStyle=orthogonalEdgeStyle;rounded=1;orthogonalLoop=1;jettySize=auto;html=1;exitX=1;exitY=0.883;exitDx=0;exitDy=0;entryX=0;entryY=0.5;entryDx=0;entryDy=0;curved=0;endArrow=none;endFill=0;exitPerimeter=0;" parent="WIyWlLk6GJQsqaUBKTNV-1" source="zkfFHV4jXpPFQw0GAbJ--5" target="zkfFHV4jXpPFQw0GAbJ--18" edge="1">
          <mxGeometry relative="1" as="geometry" />
        </mxCell>
        <mxCell id="mu_r0meLQrhX1xihYz7L-19" value="has" style="edgeLabel;html=1;align=center;verticalAlign=middle;resizable=0;points=[];labelBackgroundColor=none;" parent="mu_r0meLQrhX1xihYz7L-9" vertex="1" connectable="0">
          <mxGeometry x="-0.0617" y="1" relative="1" as="geometry">
            <mxPoint x="-14" y="-48" as="offset" />
          </mxGeometry>
        </mxCell>
        <mxCell id="mu_r0meLQrhX1xihYz7L-20" value="0..*" style="edgeLabel;html=1;align=center;verticalAlign=middle;resizable=0;points=[];labelBackgroundColor=none;" parent="mu_r0meLQrhX1xihYz7L-9" vertex="1" connectable="0">
          <mxGeometry x="0.7696" y="2" relative="1" as="geometry">
            <mxPoint x="23" y="-4" as="offset" />
          </mxGeometry>
        </mxCell>
        <mxCell id="mu_r0meLQrhX1xihYz7L-21" value="1" style="edgeLabel;html=1;align=center;verticalAlign=middle;resizable=0;points=[];labelBackgroundColor=none;" parent="mu_r0meLQrhX1xihYz7L-9" vertex="1" connectable="0">
          <mxGeometry x="-0.8774" y="1" relative="1" as="geometry">
            <mxPoint x="-11" y="-6" as="offset" />
          </mxGeometry>
        </mxCell>
        <mxCell id="mu_r0meLQrhX1xihYz7L-10" style="edgeStyle=orthogonalEdgeStyle;rounded=1;orthogonalLoop=1;jettySize=auto;html=1;entryX=0.002;entryY=0.313;entryDx=0;entryDy=0;endArrow=none;endFill=0;curved=0;exitX=1;exitY=0.598;exitDx=0;exitDy=0;exitPerimeter=0;entryPerimeter=0;" parent="WIyWlLk6GJQsqaUBKTNV-1" source="zkfFHV4jXpPFQw0GAbJ--5" target="mu_r0meLQrhX1xihYz7L-2" edge="1">
          <mxGeometry relative="1" as="geometry">
            <mxPoint x="340" y="433.12199999999984" as="sourcePoint" />
            <mxPoint x="569.9999999999998" y="433.0000000000002" as="targetPoint" />
          </mxGeometry>
        </mxCell>
        <mxCell id="mu_r0meLQrhX1xihYz7L-15" value="owns" style="edgeLabel;html=1;align=center;verticalAlign=middle;resizable=0;points=[];labelBackgroundColor=none;" parent="mu_r0meLQrhX1xihYz7L-10" vertex="1" connectable="0">
          <mxGeometry x="0.0506" y="1" relative="1" as="geometry">
            <mxPoint x="-5" y="-5" as="offset" />
          </mxGeometry>
        </mxCell>
        <mxCell id="mu_r0meLQrhX1xihYz7L-16" value="1" style="edgeLabel;html=1;align=center;verticalAlign=middle;resizable=0;points=[];labelBackgroundColor=none;" parent="mu_r0meLQrhX1xihYz7L-10" vertex="1" connectable="0">
          <mxGeometry x="-0.8711" y="2" relative="1" as="geometry">
            <mxPoint x="-7" y="-4" as="offset" />
          </mxGeometry>
        </mxCell>
        <mxCell id="mu_r0meLQrhX1xihYz7L-17" value="0..*" style="edgeLabel;html=1;align=center;verticalAlign=middle;resizable=0;points=[];labelBackgroundColor=none;" parent="mu_r0meLQrhX1xihYz7L-10" vertex="1" connectable="0">
          <mxGeometry x="0.7731" y="-1" relative="1" as="geometry">
            <mxPoint x="14" y="-7" as="offset" />
          </mxGeometry>
        </mxCell>
        <mxCell id="mu_r0meLQrhX1xihYz7L-13" style="edgeStyle=orthogonalEdgeStyle;rounded=1;orthogonalLoop=1;jettySize=auto;html=1;entryX=0;entryY=0.5;entryDx=0;entryDy=0;curved=0;endArrow=none;endFill=0;exitX=0.494;exitY=1.001;exitDx=0;exitDy=0;exitPerimeter=0;" parent="WIyWlLk6GJQsqaUBKTNV-1" source="zkfFHV4jXpPFQw0GAbJ--10" target="mu_r0meLQrhX1xihYz7L-5" edge="1">
          <mxGeometry relative="1" as="geometry">
            <mxPoint x="259" y="700" as="sourcePoint" />
          </mxGeometry>
        </mxCell>
        <mxCell id="mu_r0meLQrhX1xihYz7L-18" value="monitors" style="edgeLabel;html=1;align=center;verticalAlign=middle;resizable=0;points=[];labelBackgroundColor=none;" parent="mu_r0meLQrhX1xihYz7L-13" vertex="1" connectable="0">
          <mxGeometry x="-0.0456" y="-2" relative="1" as="geometry">
            <mxPoint y="-8" as="offset" />
          </mxGeometry>
        </mxCell>
        <mxCell id="mu_r0meLQrhX1xihYz7L-33" value="0..*" style="edgeLabel;html=1;align=center;verticalAlign=middle;resizable=0;points=[];labelBackgroundColor=none;" parent="mu_r0meLQrhX1xihYz7L-13" vertex="1" connectable="0">
          <mxGeometry x="0.8896" relative="1" as="geometry">
            <mxPoint x="8" y="-6" as="offset" />
          </mxGeometry>
        </mxCell>
        <mxCell id="mu_r0meLQrhX1xihYz7L-34" value="0..1" style="edgeLabel;html=1;align=center;verticalAlign=middle;resizable=0;points=[];" parent="mu_r0meLQrhX1xihYz7L-13" vertex="1" connectable="0">
          <mxGeometry x="-0.8831" y="1" relative="1" as="geometry">
            <mxPoint x="10" y="-13" as="offset" />
          </mxGeometry>
        </mxCell>
        <mxCell id="mu_r0meLQrhX1xihYz7L-14" style="edgeStyle=orthogonalEdgeStyle;rounded=1;orthogonalLoop=1;jettySize=auto;html=1;exitX=1;exitY=0.336;exitDx=0;exitDy=0;entryX=0;entryY=0.336;entryDx=0;entryDy=0;curved=0;endArrow=none;endFill=0;exitPerimeter=0;entryPerimeter=0;" parent="WIyWlLk6GJQsqaUBKTNV-1" source="zkfFHV4jXpPFQw0GAbJ--1" target="zkfFHV4jXpPFQw0GAbJ--14" edge="1">
          <mxGeometry relative="1" as="geometry">
            <mxPoint x="340" y="193" as="sourcePoint" />
            <mxPoint x="570" y="138" as="targetPoint" />
          </mxGeometry>
        </mxCell>
        <mxCell id="mu_r0meLQrhX1xihYz7L-22" value="&lt;span style=&quot;&quot;&gt;owns&lt;/span&gt;" style="edgeLabel;html=1;align=center;verticalAlign=middle;resizable=0;points=[];labelBackgroundColor=none;" parent="mu_r0meLQrhX1xihYz7L-14" vertex="1" connectable="0">
          <mxGeometry x="-0.1811" relative="1" as="geometry">
            <mxPoint x="17" y="-6" as="offset" />
          </mxGeometry>
        </mxCell>
        <mxCell id="mu_r0meLQrhX1xihYz7L-29" value="1" style="edgeLabel;html=1;align=center;verticalAlign=middle;resizable=0;points=[];labelBackgroundColor=none;" parent="mu_r0meLQrhX1xihYz7L-14" vertex="1" connectable="0">
          <mxGeometry x="-0.918" y="1" relative="1" as="geometry">
            <mxPoint x="-2" y="-5" as="offset" />
          </mxGeometry>
        </mxCell>
        <mxCell id="mu_r0meLQrhX1xihYz7L-30" value="0..*" style="edgeLabel;html=1;align=center;verticalAlign=middle;resizable=0;points=[];labelBackgroundColor=none;" parent="mu_r0meLQrhX1xihYz7L-14" vertex="1" connectable="0">
          <mxGeometry x="0.7651" relative="1" as="geometry">
            <mxPoint x="14" y="-6" as="offset" />
          </mxGeometry>
        </mxCell>
        <mxCell id="UQN04yhtk1I_ApgpXb6l-9" style="edgeStyle=orthogonalEdgeStyle;rounded=1;orthogonalLoop=1;jettySize=auto;html=1;exitX=0.25;exitY=1;exitDx=0;exitDy=0;endArrow=diamondThin;endFill=0;endSize=10;entryX=0.75;entryY=0;entryDx=0;entryDy=0;curved=0;" edge="1" parent="WIyWlLk6GJQsqaUBKTNV-1" source="zkfFHV4jXpPFQw0GAbJ--13" target="mu_r0meLQrhX1xihYz7L-23">
          <mxGeometry relative="1" as="geometry">
            <mxPoint x="630" y="250" as="targetPoint" />
          </mxGeometry>
        </mxCell>
        <mxCell id="mu_r0meLQrhX1xihYz7L-23" value="Closet" style="swimlane;fontStyle=0;align=center;verticalAlign=top;childLayout=stackLayout;horizontal=1;startSize=26;horizontalStack=0;resizeParent=1;resizeLast=0;collapsible=1;marginBottom=0;rounded=1;shadow=0;strokeWidth=1;" parent="WIyWlLk6GJQsqaUBKTNV-1" vertex="1">
          <mxGeometry x="490" y="270" width="160" height="90" as="geometry">
            <mxRectangle x="340" y="380" width="170" height="26" as="alternateBounds" />
          </mxGeometry>
        </mxCell>
        <mxCell id="mu_r0meLQrhX1xihYz7L-24" value="&#x9;- closetID: String&#xa;&#x9;- items: List &lt;Clothe&gt;&#xa;&#x9;- creatorID: String" style="text;align=left;verticalAlign=top;spacingLeft=4;spacingRight=4;overflow=hidden;rotatable=0;points=[[0,0.5],[1,0.5]];portConstraint=eastwest;" parent="mu_r0meLQrhX1xihYz7L-23" vertex="1">
          <mxGeometry y="26" width="160" height="54" as="geometry" />
        </mxCell>
        <mxCell id="mu_r0meLQrhX1xihYz7L-25" value="" style="line;html=1;strokeWidth=1;align=left;verticalAlign=middle;spacingTop=-1;spacingLeft=3;spacingRight=3;rotatable=0;labelPosition=right;points=[];portConstraint=eastwest;" parent="mu_r0meLQrhX1xihYz7L-23" vertex="1">
          <mxGeometry y="80" width="160" height="8" as="geometry" />
        </mxCell>
        <mxCell id="mu_r0meLQrhX1xihYz7L-26" style="edgeStyle=orthogonalEdgeStyle;rounded=1;orthogonalLoop=1;jettySize=auto;html=1;exitX=1;exitY=0.142;exitDx=0;exitDy=0;entryX=0;entryY=0.5;entryDx=0;entryDy=0;curved=0;endArrow=none;endFill=0;exitPerimeter=0;" parent="WIyWlLk6GJQsqaUBKTNV-1" source="zkfFHV4jXpPFQw0GAbJ--5" target="mu_r0meLQrhX1xihYz7L-24" edge="1">
          <mxGeometry relative="1" as="geometry" />
        </mxCell>
        <mxCell id="mu_r0meLQrhX1xihYz7L-27" value="&lt;span style=&quot;&quot;&gt;owns&lt;/span&gt;" style="edgeLabel;html=1;align=center;verticalAlign=middle;resizable=0;points=[];labelBackgroundColor=none;" parent="mu_r0meLQrhX1xihYz7L-26" vertex="1" connectable="0">
          <mxGeometry x="-0.1803" relative="1" as="geometry">
            <mxPoint x="12" y="-7" as="offset" />
          </mxGeometry>
        </mxCell>
        <mxCell id="mu_r0meLQrhX1xihYz7L-31" value="0..*" style="edgeLabel;html=1;align=center;verticalAlign=middle;resizable=0;points=[];labelBackgroundColor=none;" parent="mu_r0meLQrhX1xihYz7L-26" vertex="1" connectable="0">
          <mxGeometry x="0.8748" y="1" relative="1" as="geometry">
            <mxPoint x="-1" y="-5" as="offset" />
          </mxGeometry>
        </mxCell>
        <mxCell id="mu_r0meLQrhX1xihYz7L-32" value="1" style="edgeLabel;html=1;align=center;verticalAlign=middle;resizable=0;points=[];labelBackgroundColor=none;" parent="mu_r0meLQrhX1xihYz7L-26" vertex="1" connectable="0">
          <mxGeometry x="-0.8808" relative="1" as="geometry">
            <mxPoint x="-2" y="-6" as="offset" />
          </mxGeometry>
        </mxCell>
        <mxCell id="mu_r0meLQrhX1xihYz7L-35" style="edgeStyle=orthogonalEdgeStyle;rounded=1;orthogonalLoop=1;jettySize=auto;html=1;exitX=1;exitY=0.5;exitDx=0;exitDy=0;entryX=0.002;entryY=0.791;entryDx=0;entryDy=0;entryPerimeter=0;endArrow=none;endFill=0;curved=0;" parent="WIyWlLk6GJQsqaUBKTNV-1" source="zkfFHV4jXpPFQw0GAbJ--10" target="zkfFHV4jXpPFQw0GAbJ--18" edge="1">
          <mxGeometry relative="1" as="geometry">
            <mxPoint x="285" y="660" as="sourcePoint" />
            <mxPoint x="543.788" y="657.9780000000001" as="targetPoint" />
          </mxGeometry>
        </mxCell>
        <mxCell id="mu_r0meLQrhX1xihYz7L-36" value="manages" style="edgeLabel;html=1;align=center;verticalAlign=middle;resizable=0;points=[];labelBackgroundColor=none;" parent="mu_r0meLQrhX1xihYz7L-35" vertex="1" connectable="0">
          <mxGeometry x="0.0252" y="-1" relative="1" as="geometry">
            <mxPoint x="-3" y="5" as="offset" />
          </mxGeometry>
        </mxCell>
        <mxCell id="mu_r0meLQrhX1xihYz7L-37" value="&lt;span style=&quot;&quot;&gt;0..*&lt;/span&gt;" style="edgeLabel;html=1;align=center;verticalAlign=middle;resizable=0;points=[];labelBackgroundColor=none;" parent="mu_r0meLQrhX1xihYz7L-35" vertex="1" connectable="0">
          <mxGeometry x="0.8962" y="-1" relative="1" as="geometry">
            <mxPoint x="-1" y="7" as="offset" />
          </mxGeometry>
        </mxCell>
        <mxCell id="mu_r0meLQrhX1xihYz7L-38" value="0..1" style="edgeLabel;html=1;align=center;verticalAlign=middle;resizable=0;points=[];labelBackgroundColor=none;" parent="mu_r0meLQrhX1xihYz7L-35" vertex="1" connectable="0">
          <mxGeometry x="-0.9324" relative="1" as="geometry">
            <mxPoint x="4" y="-6" as="offset" />
          </mxGeometry>
        </mxCell>
        <mxCell id="UQN04yhtk1I_ApgpXb6l-3" style="edgeStyle=orthogonalEdgeStyle;rounded=1;orthogonalLoop=1;jettySize=auto;html=1;exitX=1;exitY=0.546;exitDx=0;exitDy=0;entryX=0.002;entryY=0.704;entryDx=0;entryDy=0;curved=0;endArrow=none;endFill=0;exitPerimeter=0;entryPerimeter=0;" edge="1" parent="WIyWlLk6GJQsqaUBKTNV-1" source="zkfFHV4jXpPFQw0GAbJ--1" target="zkfFHV4jXpPFQw0GAbJ--14">
          <mxGeometry relative="1" as="geometry">
            <mxPoint x="350" y="223" as="sourcePoint" />
            <mxPoint x="580" y="168" as="targetPoint" />
          </mxGeometry>
        </mxCell>
        <mxCell id="UQN04yhtk1I_ApgpXb6l-4" value="&lt;span style=&quot;&quot;&gt;has&lt;/span&gt;" style="edgeLabel;html=1;align=center;verticalAlign=middle;resizable=0;points=[];labelBackgroundColor=none;" vertex="1" connectable="0" parent="UQN04yhtk1I_ApgpXb6l-3">
          <mxGeometry x="-0.1811" relative="1" as="geometry">
            <mxPoint x="16" y="-6" as="offset" />
          </mxGeometry>
        </mxCell>
        <mxCell id="UQN04yhtk1I_ApgpXb6l-5" value="1..*" style="edgeLabel;html=1;align=center;verticalAlign=middle;resizable=0;points=[];labelBackgroundColor=none;" vertex="1" connectable="0" parent="UQN04yhtk1I_ApgpXb6l-3">
          <mxGeometry x="-0.918" y="1" relative="1" as="geometry">
            <mxPoint x="2" y="-5" as="offset" />
          </mxGeometry>
        </mxCell>
        <mxCell id="UQN04yhtk1I_ApgpXb6l-6" value="0..*" style="edgeLabel;html=1;align=center;verticalAlign=middle;resizable=0;points=[];labelBackgroundColor=none;" vertex="1" connectable="0" parent="UQN04yhtk1I_ApgpXb6l-3">
          <mxGeometry x="0.7651" relative="1" as="geometry">
            <mxPoint x="15" y="-6" as="offset" />
          </mxGeometry>
        </mxCell>
        <mxCell id="UQN04yhtk1I_ApgpXb6l-24" style="edgeStyle=orthogonalEdgeStyle;rounded=1;orthogonalLoop=1;jettySize=auto;html=1;entryX=0.001;entryY=0.822;entryDx=0;entryDy=0;endArrow=none;endFill=0;curved=0;exitX=1;exitY=0.711;exitDx=0;exitDy=0;exitPerimeter=0;entryPerimeter=0;" edge="1" parent="WIyWlLk6GJQsqaUBKTNV-1" source="zkfFHV4jXpPFQw0GAbJ--5" target="mu_r0meLQrhX1xihYz7L-2">
          <mxGeometry relative="1" as="geometry">
            <mxPoint x="350" y="460" as="sourcePoint" />
            <mxPoint x="580" y="460" as="targetPoint" />
          </mxGeometry>
        </mxCell>
        <mxCell id="UQN04yhtk1I_ApgpXb6l-25" value="has" style="edgeLabel;html=1;align=center;verticalAlign=middle;resizable=0;points=[];labelBackgroundColor=none;" vertex="1" connectable="0" parent="UQN04yhtk1I_ApgpXb6l-24">
          <mxGeometry x="0.0506" y="1" relative="1" as="geometry">
            <mxPoint x="-5" y="7" as="offset" />
          </mxGeometry>
        </mxCell>
        <mxCell id="UQN04yhtk1I_ApgpXb6l-26" value="1..*" style="edgeLabel;html=1;align=center;verticalAlign=middle;resizable=0;points=[];labelBackgroundColor=none;" vertex="1" connectable="0" parent="UQN04yhtk1I_ApgpXb6l-24">
          <mxGeometry x="-0.8711" y="2" relative="1" as="geometry">
            <mxPoint x="-3" y="-4" as="offset" />
          </mxGeometry>
        </mxCell>
        <mxCell id="UQN04yhtk1I_ApgpXb6l-27" value="0..*" style="edgeLabel;html=1;align=center;verticalAlign=middle;resizable=0;points=[];labelBackgroundColor=none;" vertex="1" connectable="0" parent="UQN04yhtk1I_ApgpXb6l-24">
          <mxGeometry x="0.7731" y="-1" relative="1" as="geometry">
            <mxPoint x="14" y="-7" as="offset" />
          </mxGeometry>
        </mxCell>
      </root>
    </mxGraphModel>
  </diagram>
</mxfile>
